<svg fill="#555555" height="512" viewBox="0 0 61 60" width="512" xmlns="http://www.w3.org/2000/svg"><g id="004---Microscope"><path id="Shape" d="m46 0c-6.3895581.00522024-11.964883 4.33592694-13.5505884 10.5255973-1.5857054 6.1896703 1.2205931 12.6676296 6.8205884 15.7444027l-4.91 10.73h-5.36c-.5522847 0-1 .4477153-1 1s.4477153 1 1 1h1.79c-1.9525709 3.9760282-6.0995225 6.3929537-10.5214326 6.1320991-4.42191-.2608545-8.2559325-3.1485887-9.7274847-7.3266107-1.47155218-4.178022-.2934906-8.8310755 2.9889173-11.8054884.1565126.0098274.3134874.0098274.47 0 1.0831551.0081322 2.1383553-.3436012 3-1l1.23 1.23c-.1823393.6851562.0116954 1.4156398.51 1.92l1.41 1.42c.3749829.3719209.881855.5804215 1.41.58 1 0 1.49-.65 2.13-1.29l2.07 2.14c.3751365.3755541.8841815.5865733 1.415.5865733s1.0398635-.2110192 1.415-.5865733l2.82-2.83c.3755541-.3751365.5865733-.8841815.5865733-1.415s-.2110192-1.0398635-.5865733-1.415l-2.12-2.12.71-.7c.3755541-.3751365.5865733-.8841815.5865733-1.415s-.2110192-1.0398635-.5865733-1.415l-1.41-1.42c-.5064386-.5018619-1.2417506-.6961671-1.93-.51l-14.34-14.36c-.3751365-.37555409-.8841815-.58657331-1.415-.58657331s-1.03986349.21101922-1.415.58657331l-2.82-2.81c-.37513651-.37555409-.8841815-.58657331-1.415-.58657331s-1.03986349.21101922-1.415.58657331l-2.84 2.82c-.37555409.37513651-.58657331.8841815-.58657331 1.415s.21101922 1.03986349.58657331 1.415l2.84 2.83c-.37555409.37513651-.58657331.8841815-.58657331 1.415s.21101922 1.0398635.58657331 1.415l6.16 6.15c-.56611057.7278593-.91299891 1.6020179-1 2.52-4.41867899 3.9543016-6.60637801 9.8311509-5.84900602 15.7122743s4.36264166 11.0119533 9.63900602 13.7177257h-4.79c-3.3137085 0-6 2.6862915-6 6v2h-1c-.55228475 0-1 .4477153-1 1s.44771525 1 1 1h40c.5522847 0 1-.4477153 1-1s-.4477153-1-1-1h-1v-2c0-3.3137085-2.6862915-6-6-6h-4.75c4.3925736-2.2637003 7.650942-6.2461506 9-11h2.75c.5522847 0 1-.4477153 1-1s-.4477153-1-1-1h-4.44l4.54-9.9c5.2517115 1.9798003 11.1781701.6318948 15.0570077-3.4245447 3.8788376-4.0564396 4.9602422-10.0372693 2.7474617-15.19514534-2.2127806-5.15787606-7.2919971-8.4957375-12.9044694-8.48030996zm-18.83 29.58-2.12-2.12 2.83-2.83 2.12 2.12zm-13.17-11.58c1.6568542 0 3 1.3431458 3 3s-1.3431458 3-3 3-3-1.3431458-3-3 1.3431458-3 3-3zm14.59 3.09-7.08 7.07-1.41-1.41 7.07-7.07zm-26.17-16.26 2.83-2.83 2.83 2.83-2.83 2.83zm8.49 0 14.14 14.17-5.66 5.66-1.1-1.1c1.1157223-1.9571677.7847849-4.4187712-.808222-6.011778-1.5930068-1.5930069-4.0546103-1.9239443-6.011778-.808222l-6.22-6.25zm23.09 47.17c2.209139 0 4 1.790861 4 4v2h-34v-2c0-2.209139 1.790861-4 4-4zm-13-2c-6.3865548-.0115458-12.15452995-3.8200053-14.67373113-9.6887225-2.51920119-5.8687171-1.30704292-12.6734635 3.08373113-17.3112775.41625831.9450426 1.1149163 1.7380194 2 2.27-3.52757754 3.8237462-4.43583508 9.3823363-2.30880581 14.1300288 2.12702921 4.7476926 6.87969401 7.7701144 12.08135311 7.6830467s9.8505084-3.2668562 11.8174527-8.0830755h3.2c-2.140832 6.578054-8.2823815 11.0225965-15.2 11zm25-24c-6.627417 0-12-5.372583-12-12s5.372583-12 12-12 12 5.372583 12 12c0 3.1825979-1.2642821 6.2348448-3.5147186 8.4852814-2.2504366 2.2504365-5.3026835 3.5147186-8.4852814 3.5147186z"/><circle id="Oval" cx="43" cy="7" r="1"/><circle id="Oval" cx="38" cy="12" r="1"/><circle id="Oval" cx="46" cy="23" r="1"/><circle id="Oval" cx="48" cy="17" r="1"/><circle id="Oval" cx="39" cy="18" r="1"/><circle id="Oval" cx="48" cy="6" r="1"/><circle id="Oval" cx="54" cy="16" r="1"/><path id="Shape" d="m46 14c0-1.6568542-1.3431458-3-3-3s-3 1.3431458-3 3 1.3431458 3 3 3 3-1.3431458 3-3zm-3 1c-.5522847 0-1-.4477153-1-1s.4477153-1 1-1 1 .4477153 1 1-.4477153 1-1 1z"/><path id="Shape" d="m54 11c0-1.65685425-1.3431458-3-3-3s-3 1.34314575-3 3c0 1.6568542 1.3431458 3 3 3s3-1.3431458 3-3zm-3 1c-.5522847 0-1-.4477153-1-1s.4477153-1 1-1 1 .4477153 1 1-.4477153 1-1 1z"/></g></svg>