<svg fill="#555555" height="511pt" viewBox="0 1 511 511.999" width="511pt" xmlns="http://www.w3.org/2000/svg"><path d="m452.496094 373.25v-43.769531c34.191406-6.96875 60-37.265625 60-73.480469 0-41.351562-33.644532-75-75-75-41.351563 0-75 33.648438-75 75 0 36.214844 25.808594 66.511719 60 73.480469v43.769531c0 59.972656-48.777344 108.75-108.75 108.75-64.101563 0-117.25-52.148438-117.25-116.25v-34.128906c9.394531-3.328125 18.640625-9.449219 24.132812-18.214844l49.789063-79.4375c.136719-.21875.136719-.472656.261719-.695312 53.199218-18.121094 91.816406-69.015626 91.816406-128.273438 0-36.214844-25.808594-66.511719-60-73.480469v-16.519531c0-8.289062-6.707032-15-15-15-8.289063 0-15 6.710938-15 15v60c0 8.289062 6.710937 15 15 15 8.292968 0 15-6.710938 15-15v-12.238281c17.421875 6.214843 30 22.707031 30 42.238281 0 57.890625-47.109375 106-105 106h-92c-59.03125 0-106.84375-49.644531-104.953125-109.457031.582031-17.898438 13.074219-33.050781 29.953125-38.882813v12.339844c0 8.289062 6.710937 15 15 15 8.292968 0 15-6.710938 15-15v-60c0-8.289062-6.707032-15-15-15-8.289063 0-15 6.710938-15 15v16.53125c-33.136719 6.71875-58.839844 35.105469-59.925782 69.042969-1.816406 56.484375 31.371094 112.375 91.769532 132.769531.117187.199219.113281.425781.238281.625l49.789063 79.4375c5.488281 8.761719 14.734374 14.882812 24.128906 18.214844v34.128906c0 80.640625 66.609375 146.25 147.25 146.25 76.511718 0 138.75-62.242188 138.75-138.75zm-45-117.25c0-16.539062 13.464844-30 30-30 16.539062 0 30 13.460938 30 30s-13.460938 30-30 30c-16.535156 0-30-13.460938-30-30zm-238.699219 41.46875-36.597656-56.796875c10.589843.261719 30.519531.335937 50.300781.328125 19.089844-.003906 38.039062-.082031 48.300781-.332031l-36.601562 56.804687c-5.875 9.382813-19.527344 9.382813-25.402344-.003906zm0 0"/></svg>