<svg id="Layer_5" enable-background="new 0 0 64 64" height="512" viewBox="0 0 64 64" width="512" xmlns="http://www.w3.org/2000/svg"><path d="m37.312 21.626c3.388-1.877 5.688-5.487 5.688-9.626 0-6.065-4.935-11-11-11s-11 4.935-11 11c0 4.139 2.3 7.749 5.688 9.626-10.129 2.405-17.688 11.52-17.688 22.374v19h46v-19c0-10.854-7.559-19.969-17.688-22.374zm-14.312-9.626c0-4.962 4.037-9 9-9s9 4.038 9 9-4.037 9-9 9-9-4.038-9-9zm30 49h-4v-26h-2v26h-30v-26h-2v26h-4v-17c0-11.58 9.421-21 21-21s21 9.42 21 21z"/><path d="m36 35.389c-1.761.748-3 2.495-3 4.526 0 .892.242 1.767.7 2.529l1.413 2.355c.816 1.358 2.305 2.201 3.887 2.201s3.071-.843 3.887-2.2l1.413-2.355c.458-.763.7-1.638.7-2.529 0-2.031-1.239-3.778-3-4.526v-4.39h-2.08c-.488-3.387-3.401-6-6.92-6-3.859 0-7 3.14-7 7v5.919l-3.649-2.919h-3.351v2h2.649l4.351 3.481v4.519h-1.465l-2-3h-3.535v2h2.465l2 3h2.535v2.54l-7 6v3.46h2v-2.54l5.948-5.098 2.53 2.53-3.478 2.608v2.5h2v-1.5l3.209-2.407 10.529 2.872 3.262.035v-2h-2.866l-3.362-.917 3.598-3.083h2.63v-2h-3.37l-5.188 4.448-4.922-1.342-3.52-3.52v-5.586h2v-2h-2v-10c0-2.757 2.243-5 5-5 2.414 0 4.434 1.721 4.899 4h-1.899zm4-.389h-2v-2h2zm3 4.915c0 .529-.144 1.048-.415 1.5l-1.413 2.355c-.455.759-1.288 1.23-2.172 1.23s-1.717-.471-2.172-1.229l-1.413-2.355c-.271-.453-.415-.972-.415-1.501 0-1.607 1.308-2.915 2.915-2.915h2.17c1.607 0 2.915 1.308 2.915 2.915z"/><path d="m38.891 39.059-1.336-.891-1.109 1.664 1.336.891c.762.508 1.218 1.36 1.218 2.277h2c0-1.588-.788-3.061-2.109-3.941z"/></svg>