<?xml version="1.0" encoding="iso-8859-1"?>
<!-- Generator: Adobe Illustrator 19.0.0, SVG Export Plug-In . SVG Version: 6.00 Build 0)  -->
<svg version="1.1" id="Layer_1" xmlns="http://www.w3.org/2000/svg" xmlns:xlink="http://www.w3.org/1999/xlink" x="0px" y="0px"
	 viewBox="0 0 512 512" style="enable-background:new 0 0 512 512;" xml:space="preserve">
<g>
	<g>
		<path d="M495.304,242.087h-144.83c-11.519,0-19.576,11.412-15.742,22.259c3.149,8.911,4.746,18.274,4.746,27.828
			c0,46.03-37.448,83.478-83.478,83.478s-83.478-37.448-83.478-83.478c0-26.241,10.88-31.373,2.636-43.031
			c-3.13-4.425-8.212-7.056-13.631-7.056H16.696C7.475,242.087,0,249.562,0,258.783v233.739c0,9.22,7.475,16.696,16.696,16.696
			h478.609c9.22,0,16.696-7.475,16.696-16.696V258.783C512,249.562,504.525,242.087,495.304,242.087z M478.609,475.826H33.391
			V275.478h106.922c-0.788,5.503-1.183,11.077-1.183,16.696c0,64.442,52.428,116.87,116.87,116.87s116.87-52.428,116.87-116.87
			c0-5.619-0.395-11.193-1.183-16.696h106.922V475.826z"/>
	</g>
</g>
<g>
	<g>
		<path d="M335.564,7.524c-6.604-6.437-17.173-6.303-23.61,0.297c-52.578,53.919-80.631,129.103-73.892,207.084
			c-20.184,15.046-32.149,58.059-32.149,77.269c0,27.618,22.469,50.087,50.087,50.087c27.618,0,50.087-22.469,50.087-50.087
			c0-19.487-12.54-65.273-34.664-78.982c-6.298-67.415,16.873-133.281,64.437-182.058C342.299,24.532,342.165,13.961,335.564,7.524z
			 M272.696,292.174c0,9.206-7.49,16.696-16.696,16.696c-9.206,0-16.696-7.49-16.696-16.696c0-10.891,7.659-37.623,16.696-48.443
			C264.858,254.337,272.696,280.956,272.696,292.174z"/>
	</g>
</g>
<g>
	<g>
		<circle cx="83.478" cy="358.957" r="16.696"/>
	</g>
</g>
<g>
	<g>
		<circle cx="428.522" cy="336.696" r="16.696"/>
	</g>
</g>
<g>
	<g>
		<circle cx="372.87" cy="425.739" r="16.696"/>
	</g>
</g>
<g>
	<g>
		<circle cx="139.13" cy="425.739" r="16.696"/>
	</g>
</g>
<g>
</g>
<g>
</g>
<g>
</g>
<g>
</g>
<g>
</g>
<g>
</g>
<g>
</g>
<g>
</g>
<g>
</g>
<g>
</g>
<g>
</g>
<g>
</g>
<g>
</g>
<g>
</g>
<g>
</g>
</svg>
