<?xml version="1.0" encoding="iso-8859-1"?>
<!-- Generator: Adobe Illustrator 19.0.0, SVG Export Plug-In . SVG Version: 6.00 Build 0)  -->
<svg version="1.1" id="Capa_1" xmlns="http://www.w3.org/2000/svg" xmlns:xlink="http://www.w3.org/1999/xlink" x="0px" y="0px"
	 viewBox="0 0 512 512" style="enable-background:new 0 0 512 512;" xml:space="preserve">
<g>
	<g>
		<path d="M301,271c-15.875,0-31.241,4.231-45,12.32c-13.758-8.089-29.124-12.32-45-12.32c-49.626,0-90,40.374-90,90
			c0,38.415,24.599,72.332,60,84.861V497c0,8.284,6.716,15,15,15h120c8.284,0,15-6.716,15-15v-51.139
			c35.401-12.529,60-46.446,60-84.861C391,311.374,350.626,271,301,271z M313.016,419.788c-6.991,1.419-12.016,7.566-12.016,14.7
			V482h-90v-47.512c0-7.134-5.024-13.281-12.015-14.7C171.181,414.143,151,389.418,151,361c0-33.084,26.916-60,60-60
			c22.119,0,34.986,12.101,38.324,13.762c0.22,0.213,0.432,0.431,0.668,0.633C263.343,326.824,271,343.446,271,361
			c0,8.284,6.716,15,15,15s15-6.716,15-15c0-20.73-7.12-40.588-19.917-56.462C287.466,302.21,294.17,301,301,301
			c33.084,0,60,26.916,60,60C361,389.418,340.819,414.143,313.016,419.788z"/>
	</g>
</g>
<g>
	<g>
		<path d="M331,66.14V15c0-8.284-6.716-15-15-15H196c-8.284,0-15,6.716-15,15v51.14c-35.401,12.529-60,46.446-60,84.86
			c0,49.626,40.374,90,90,90c15.876,0,31.242-4.231,45-12.32c13.759,8.089,29.125,12.32,45,12.32c49.626,0,90-40.374,90-90
			C391,112.585,366.401,78.668,331,66.14z M301,211c-31.213,0-60-25.289-60-60c0-8.284-6.716-15-15-15s-15,6.716-15,15
			c0,20.97,7.073,40.679,19.874,56.478C224.504,209.795,217.815,211,211,211c-33.084,0-60-26.916-60-60
			c0-28.418,20.181-53.142,47.985-58.787c6.991-1.419,12.015-7.566,12.015-14.7V30h90v47.513c0,7.134,5.024,13.281,12.016,14.7
			C340.819,97.858,361,122.582,361,151C361,184.084,334.084,211,301,211z"/>
	</g>
</g>
<g>
	<g>
		<path d="M497,241h-46c-8.284,0-15,6.716-15,15s6.716,15,15,15h46c8.284,0,15-6.716,15-15S505.284,241,497,241z"/>
	</g>
</g>
<g>
	<g>
		<path d="M476.606,155.393c-5.857-5.858-15.355-5.858-21.213,0l-30,30c-5.858,5.858-5.858,15.355,0,21.213
			c5.857,5.858,15.356,5.859,21.213,0l30-30C482.464,170.748,482.464,161.251,476.606,155.393z"/>
	</g>
</g>
<g>
	<g>
		<path d="M476.607,335.393l-30-30c-5.857-5.858-15.355-5.858-21.213,0c-5.859,5.858-5.859,15.356,0,21.213l30,30
			c5.857,5.858,15.355,5.859,21.213,0C482.465,350.748,482.465,341.251,476.607,335.393z"/>
	</g>
</g>
<g>
	<g>
		<path d="M61,241H15c-8.284,0-15,6.716-15,15s6.716,15,15,15h46c8.284,0,15-6.716,15-15S69.284,241,61,241z"/>
	</g>
</g>
<g>
	<g>
		<path d="M86.606,185.394l-30-30c-5.857-5.858-15.355-5.858-21.213,0c-5.858,5.858-5.858,15.355,0,21.213l30,30
			c5.857,5.858,15.355,5.859,21.213,0C92.464,200.749,92.464,191.251,86.606,185.394z"/>
	</g>
</g>
<g>
	<g>
		<path d="M86.607,305.394c-5.858-5.859-15.356-5.859-21.213,0l-30,30c-5.858,5.858-5.858,15.355,0,21.213
			c5.857,5.858,15.355,5.859,21.213,0l30-30C92.465,320.749,92.465,311.252,86.607,305.394z"/>
	</g>
</g>
<g>
</g>
<g>
</g>
<g>
</g>
<g>
</g>
<g>
</g>
<g>
</g>
<g>
</g>
<g>
</g>
<g>
</g>
<g>
</g>
<g>
</g>
<g>
</g>
<g>
</g>
<g>
</g>
<g>
</g>
</svg>
