<svg id="Capa_1" enable-background="new 0 0 512 512" height="512" viewBox="0 0 512 512" width="512" xmlns="http://www.w3.org/2000/svg"><g><path d="m106 15v77h-15c-8.284 0-15 6.716-15 15v270c0 74.439 60.561 135 135 135h150c8.284 0 15-6.716 15-15v-15h45c8.284 0 15-6.716 15-15v-90c0-8.284-6.716-15-15-15h-45v-15c0-8.284-6.716-15-15-15h-75v-225c0-8.284-6.716-15-15-15h-15v-77c0-8.284-6.716-15-15-15h-120c-8.284 0-15 6.716-15 15zm300 377v60h-30v-60zm-60 90h-135c-57.897 0-105-47.103-105-105v-15h240zm-240-150v-210h150v210zm120-302v62h-90v-62z"/><path d="m211 152h-60c-8.284 0-15 6.716-15 15s6.716 15 15 15h60c8.284 0 15-6.716 15-15s-6.716-15-15-15z"/><path d="m211 212h-60c-8.284 0-15 6.716-15 15s6.716 15 15 15h60c8.284 0 15-6.716 15-15s-6.716-15-15-15z"/><path d="m211 272h-60c-8.284 0-15 6.716-15 15s6.716 15 15 15h60c8.284 0 15-6.716 15-15s-6.716-15-15-15z"/></g></svg>