<svg height="512pt" viewBox="-31 0 512 512" width="512pt" xmlns="http://www.w3.org/2000/svg"><path d="m0 256c0 30.675781 13.222656 58.320312 34.269531 77.535156-2.832031 8.820313-4.269531 18.015625-4.269531 27.464844 0 51.242188 42.859375 92.085938 93.808594 89.917969 12.628906 45.246093 54.203125 61.082031 101.191406 61.082031 46.964844 0 88.585938-15.816406 101.199219-61.078125 51.179687 2.117187 93.800781-38.867187 93.800781-89.921875 0-9.449219-1.4375-18.644531-4.269531-27.464844 21.046875-19.214844 34.269531-46.859375 34.269531-77.535156 0-30.921875-13.441406-58.761719-34.78125-77.996094 3.175781-8.675781 4.78125-17.71875 4.78125-27.003906 0-46.347656-41.089844-84.628906-93.683594-89.480469-12.433594-45.453125-53.980468-61.519531-101.316406-61.519531-47.152344 0-88.902344 15.832031-101.335938 61.519531-52.585937 4.859375-93.664062 43.132813-93.664062 89.480469 0 9.285156 1.605469 18.328125 4.78125 27.003906-21.339844 19.234375-34.78125 47.074219-34.78125 77.996094zm299.164062-177.785156c1.09375 7.835937 8.265626 13.890625 16.902344 12.792968 40.867188.457032 73.933594 27.191407 73.933594 59.992188 0 3.273438-.335938 6.503906-.984375 9.683594-13.394531-6.210938-28.304687-9.683594-44.015625-9.683594-16.191406 0-31.1875 5.175781-43.457031 13.933594-3.8125-2.808594-5.164063-6.726563-5.605469-8.597656-.578125-2.445313-1.34375-8.714844 3.992188-14.054688 5.859374-5.855469 5.859374-15.351562 0-21.210938-5.855469-5.859374-15.355469-5.859374-21.210938 0-11.109375 11.109376-15.585938 26.867188-11.980469 42.160157 2.222657 9.40625 7.269531 17.59375 14.289063 23.667969-6.988282 11.390624-11.027344 24.785156-11.027344 39.101562 0 8.285156 6.714844 15 15 15s15-6.714844 15-15c0-24.8125 20.1875-45 45-45 41.355469 0 75 33.644531 75 75s-33.644531 75-75 75c-8.285156 0-15 6.714844-15 15s6.714844 15 15 15c15.785156 0 30.765625-3.507812 44.210938-9.777344.523437 3.203125.789062 6.464844.789062 9.777344 0 38.371094-35.703125 66.753906-72.566406 58.671875-8.625-1.894531-17.023438 4.050781-18.101563 12.816406-3.253906 26.4375-18.703125 45.101563-59.332031 48.847657v-450.675782c40.003906 3.695313 55.570312 21.871094 59.164062 47.554688zm-239.164062 72.785156c0-33.085938 33.644531-60 75-60 .269531 0 .535156 0 .804688.003906.066406.003906.132812.003906.199218.003906 7.46875 0 13.816406-5.507812 14.851563-12.921874 3.566406-25.496094 18.910156-43.738282 59.144531-47.429688v450.683594c-33.261719-3.070313-55.332031-16.394532-59.339844-48.902344-1.085937-8.820312-9.558594-14.753906-18.207031-12.792969-35.980469 8.179688-72.453125-19.777343-72.453125-58.644531 0-3.3125.265625-6.574219.789062-9.777344 13.445313 6.269532 28.425782 9.777344 44.210938 9.777344 8.285156 0 15-6.714844 15-15s-6.714844-15-15-15c-41.355469 0-75-33.644531-75-75s33.644531-75 75-75c24.8125 0 45 20.1875 45 45 0 8.285156 6.714844 15 15 15s15-6.714844 15-15c0-15.4375-4.691406-29.800781-12.722656-41.742188 5.644531-5.808593 9.703125-13.125 11.582031-21.355468 3.464844-15.179688-1.039063-30.820313-12.054687-41.832032-5.855469-5.855468-15.355469-5.855468-21.210938 0-5.859375 5.859376-5.859375 15.355469 0 21.214844 5.289062 5.289063 4.570312 11.511719 4.015625 13.941406-.347656 1.523438-1.285156 4.421876-3.671875 6.980469-11.78125-7.707031-25.839844-12.207031-40.9375-12.207031-15.710938 0-30.621094 3.472656-44.015625 9.683594-.648437-3.179688-.984375-6.410156-.984375-9.683594zm0 0"/><path d="m315 391c8.285156 0 15-6.714844 15-15s-6.714844-15-15-15c-8.269531 0-15-6.730469-15-15v-30c0-8.269531 6.730469-15 15-15 24.8125 0 45-20.1875 45-45 0-8.285156-6.714844-15-15-15s-15 6.714844-15 15c0 8.269531-6.730469 15-15 15-24.8125 0-45 20.1875-45 45v30c0 24.8125 20.1875 45 45 45zm0 0"/><path d="m135 271c-8.269531 0-15-6.730469-15-15 0-8.285156-6.714844-15-15-15s-15 6.714844-15 15c0 24.8125 20.1875 45 45 45 8.269531 0 15 6.730469 15 15v30c0 8.269531-6.730469 15-15 15-8.285156 0-15 6.714844-15 15s6.714844 15 15 15c24.8125 0 45-20.1875 45-45v-30c0-24.8125-20.1875-45-45-45zm0 0"/></svg>