<?xml version="1.0" encoding="iso-8859-1"?>
<!-- Generator: Adobe Illustrator 18.0.0, SVG Export Plug-In . SVG Version: 6.00 Build 0)  -->
<!DOCTYPE svg PUBLIC "-//W3C//DTD SVG 1.1//EN" "http://www.w3.org/Graphics/SVG/1.1/DTD/svg11.dtd">
<svg version="1.1" id="Capa_1" xmlns="http://www.w3.org/2000/svg" xmlns:xlink="http://www.w3.org/1999/xlink" x="0px" y="0px"
	 viewBox="0 0 239.083 239.083" style="enable-background:new 0 0 239.083 239.083;" xml:space="preserve">
<g>
	<path d="M95.304,103.057H81.25c5.502-5.688,8.902-13.422,8.902-21.941c0-17.349-14.17-31.463-31.586-31.463
		C27.915,49.653,0,78.682,0,110.557c0,31.874,27.915,60.902,58.566,60.902c17.417,0,31.586-14.113,31.586-31.461
		c0-8.52-3.399-16.254-8.901-21.941h14.053c2.612,0,4.737,2.126,4.737,4.738v59.135c0,4.143,3.358,7.5,7.5,7.5
		c4.142,0,7.5-3.357,7.5-7.5v-59.135C115.041,111.912,106.187,103.057,95.304,103.057z M58.566,156.46
		C36.172,156.46,15,134.152,15,110.557c0-23.596,21.172-45.904,43.566-45.904c9.146,0,16.586,7.385,16.586,16.463
		c0,9.146-7.44,16.588-16.586,16.588c-7.088,0-12.855,5.766-12.855,12.854c0,7.086,5.767,12.852,12.855,12.852
		c9.146,0,16.586,7.442,16.586,16.59C75.152,149.075,67.711,156.46,58.566,156.46z"/>
	<path d="M180.517,49.653c-17.417,0-31.586,14.114-31.586,31.463c0,8.52,3.399,16.254,8.902,21.941h-14.055
		c-10.883,0-19.736,8.854-19.736,19.738v59.135c0,4.143,3.357,7.5,7.5,7.5c4.143,0,7.5-3.357,7.5-7.5v-59.135
		c0-2.612,2.125-4.738,4.736-4.738h14.053c-5.501,5.688-8.9,13.422-8.9,21.941c0,17.348,14.169,31.461,31.586,31.461
		c30.651,0,58.566-29.028,58.566-60.902C239.083,78.682,211.168,49.653,180.517,49.653z M180.517,156.46
		c-9.146,0-16.586-7.385-16.586-16.461c0-9.147,7.44-16.59,16.586-16.59c7.089,0,12.855-5.766,12.855-12.852
		c0-7.088-5.767-12.854-12.855-12.854c-9.146,0-16.586-7.441-16.586-16.588c0-9.078,7.44-16.463,16.586-16.463
		c22.394,0,43.566,22.309,43.566,45.904C224.083,134.152,202.91,156.46,180.517,156.46z"/>
</g>
<g>
</g>
<g>
</g>
<g>
</g>
<g>
</g>
<g>
</g>
<g>
</g>
<g>
</g>
<g>
</g>
<g>
</g>
<g>
</g>
<g>
</g>
<g>
</g>
<g>
</g>
<g>
</g>
<g>
</g>
</svg>
