<?xml version="1.0" encoding="iso-8859-1"?>
<!-- Generator: Adobe Illustrator 19.0.0, SVG Export Plug-In . SVG Version: 6.00 Build 0)  -->
<svg version="1.1" id="Layer_1" xmlns="http://www.w3.org/2000/svg" xmlns:xlink="http://www.w3.org/1999/xlink" x="0px" y="0px"
	 viewBox="0 0 512 512" style="enable-background:new 0 0 512 512;" xml:space="preserve">
<g>
	<g>
		<g>
			<path d="M172.464,258.939c60.808,0,110.28-49.471,110.28-110.28c0-35.807-17.557-69.36-46.434-89.908
				C233.588,25.903,206.003,0,172.464,0s-61.123,25.903-63.846,58.751c-28.876,20.549-46.434,54.1-46.434,89.908
				C62.184,209.467,111.656,258.939,172.464,258.939z M172.464,35.801c15.595,0,28.283,12.688,28.283,28.283
				c0,37.422-56.566,37.347-56.566,0C144.181,48.489,156.869,35.801,172.464,35.801z M117.637,98.289
				c24.911,40.275,86.172,38.589,109.628-0.032c12.452,13.572,19.679,31.524,19.679,50.402c0,41.068-33.411,74.479-74.479,74.479
				c-41.068,0-74.479-33.411-74.479-74.479C97.986,129.796,105.204,111.856,117.637,98.289z"/>
			<path d="M402.368,348.228c38.941,0,70.623-31.682,70.623-70.623s-31.682-70.623-70.623-70.623
				c-38.942,0-70.624,31.682-70.624,70.623S363.426,348.228,402.368,348.228z M402.368,242.784c19.2,0,34.822,15.621,34.822,34.822
				c0,19.2-15.621,34.822-34.822,34.822c-19.201,0-34.823-15.621-34.823-34.822S383.167,242.784,402.368,242.784z"/>
			<path d="M329.988,390.723c-20.246-68.315-83.523-117.669-157.532-117.669c-90.367,0-164.26,73.49-164.26,164.272v56.774
				c0,9.886,8.015,17.901,17.901,17.901c19.445,0,448.393,0,459.807,0c9.886,0,17.901-8.015,17.901-17.901v-32.403
				C503.805,371.123,393.382,326.088,329.988,390.723z M154.564,476.199H43.999c0-41.058-5.565-89.916,41.438-133.277l69.127,69.128
				V476.199z M115.399,322.253c35.879-17.864,78.24-17.87,114.13,0l-57.065,57.065L115.399,322.253z M300.931,476.199H190.366
				v-64.15l69.128-69.128C305.546,385.407,300.931,432.364,300.931,476.199z M468.004,476.199H336.732v-14.502
				c0-36.192,29.444-65.636,65.636-65.636s65.636,29.444,65.636,65.636V476.199z"/>
		</g>
	</g>
</g>
<g>
</g>
<g>
</g>
<g>
</g>
<g>
</g>
<g>
</g>
<g>
</g>
<g>
</g>
<g>
</g>
<g>
</g>
<g>
</g>
<g>
</g>
<g>
</g>
<g>
</g>
<g>
</g>
<g>
</g>
</svg>
