<svg height="512pt" viewBox="-31 0 512 512.00019" width="512pt" xmlns="http://www.w3.org/2000/svg"><path d="m194.980469 330c74.4375 0 135-60.558594 135-135 0-74.4375-60.5625-135-135-135-74.441407 0-135 60.5625-135 135 0 74.441406 60.558593 135 135 135zm0-240c57.894531 0 105 47.105469 105 105 0 57.898438-47.105469 105-105 105-57.898438 0-105-47.101562-105-105 0-57.894531 47.101562-105 105-105zm0 0"/><path d="m90 496.972656v.027344c0 8.285156 6.714844 15 15 15h150c8.285156 0 15-6.714844 15-15 0-24.8125 20.1875-45 45-45h60c8.285156 0 14.980469-6.714844 14.980469-15v-77c0-24.8125 20.207031-45 45.019531-45 5.542969 0 10.632812-3.054688 13.238281-7.945312 2.605469-4.890626 2.300781-10.820313-.789062-15.421876-.515625-.765624-47.195313-70.214843-59.484375-88.554687.003906-20.804687.003906-32.199219.003906-32.199219 0-.644531-.039062-1.292968-.125-1.933594-11.332031-87.246093-82.871094-157.753906-170.097656-167.648437-117.949219-13.378906-217.746094 78.660156-217.746094 193.703125 0 38.488281 11.214844 75.742188 32.433594 107.726562 37.121094 55.964844 57.566406 124.949219 57.566406 194.246094zm124.363281-465.867187c73.386719 8.324219 133.65625 67.453125 143.625 140.765625 0 3.457031 0 15.855468-.007812 35.757812 0 2.960938.875 5.859375 2.519531 8.324219 3.855469 5.785156 32.234375 48.046875 49.277344 73.410156-24.40625 8.742188-43 29.792969-48.269532 55.636719h-4.101562c-23.355469 0-45.308594-9.09375-61.820312-25.609375-5.855469-5.855469-15.355469-5.855469-21.214844 0-5.855469 5.859375-5.855469 15.355469 0 21.214844 22.179687 22.179687 51.667968 34.394531 83.035156 34.394531h2.59375v47h-45c-36.21875 0-66.523438 25.808594-73.496094 60h-121.796875c-2.742187-70.050781-24.609375-139.078125-62.277343-195.859375-17.945313-27.054687-27.429688-58.570313-27.429688-91.140625 0-95.433594 82.449219-175.457031 184.363281-163.894531zm0 0"/><path d="m169.375 250.609375c5.855469 5.855469 15.355469 5.855469 21.210938 0l75-75c5.859374-5.859375 5.859374-15.355469 0-21.214844-5.855469-5.859375-15.355469-5.859375-21.210938 0l-64.394531 64.394531-34.394531-34.394531c-5.855469-5.859375-15.355469-5.859375-21.214844 0-5.855469 5.859375-5.855469 15.355469 0 21.214844zm0 0"/></svg>