<?xml version="1.0" encoding="iso-8859-1"?>
<!-- Generator: Adobe Illustrator 19.0.0, SVG Export Plug-In . SVG Version: 6.00 Build 0)  -->
<svg version="1.1" id="Capa_1" xmlns="http://www.w3.org/2000/svg" xmlns:xlink="http://www.w3.org/1999/xlink" x="0px" y="0px"
	 viewBox="0 0 512 512" style="enable-background:new 0 0 512 512;" xml:space="preserve">
<g>
	<g>
		<path d="M354.985,66.116c-62.859-25.769-134.813-25.487-197.411,0.774l-0.443,0.186c-15.278,6.41-24.458,20.994-22.843,36.29
			c0.541,5.137,4.88,8.954,9.933,8.954c0.351,0,0.705-0.019,1.062-0.057c5.492-0.579,9.476-5.502,8.896-10.995
			c-0.681-6.449,3.616-12.778,10.691-15.746l0.442-0.186c57.74-24.223,124.108-24.482,182.088-0.711
			c7.392,3.029,11.736,9.569,10.81,16.272c-0.756,5.471,3.066,10.52,8.539,11.275c5.466,0.748,10.52-3.066,11.275-8.539
			C380.216,87.743,370.959,72.666,354.985,66.116z"/>
	</g>
</g>
<g>
	<g>
		<path d="M501.405,105.244c-18.183-25.583-52.91-32.016-79.059-14.646l-15.426,10.25c-28.948,19.234-63.738,26.491-97.955,20.438
			l-14.735-2.608c-25.009-4.422-51.45-4.421-76.466,0.001l-14.731,2.607c-34.224,6.051-69.008-1.202-97.955-20.438l-15.427-10.25
			c-26.146-17.371-60.872-10.94-79.059,14.646c-17.364,24.424-12.947,58.606,10.056,77.815l22.995,19.203l0.254,0.209
			c0.218,0.178,0.351,0.431,0.396,0.75c1.659,11.755,7.755,23.41,17.165,32.821c9.198,9.198,20.599,15.258,32.102,17.064
			c12.478,1.96,24.131-1.403,31.956-9.229c7.823-7.823,11.188-19.472,9.229-31.956c-1.806-11.504-7.865-22.903-17.064-32.102
			c-8.542-8.541-19.148-14.455-29.868-16.652c-2.183-0.447-4.361-1.651-6.296-3.479c-0.42-0.397-0.855-0.784-1.31-1.165
			L57.189,139.3c-0.277-0.232-0.342-0.732-0.132-1.026c0.259-0.367,0.669-0.444,1.047-0.193l15.426,10.25
			c24.906,16.549,53.066,26.902,82.225,30.554c12.999,19.845,16.186,42.875,8.685,63.689c-3.52,9.77-5.05,19.983-4.548,30.36
			c0.813,16.824,7.063,33.185,18.073,47.314c23.217,29.793,35.488,65.505,35.488,103.274v31.488c0,5.522,4.478,10.001,10.001,10.001
			h65.036c5.522,0,10.001-4.478,10.001-10.001v-31.477c0-36.619,12.65-72.657,36.581-104.218
			c11.358-14.977,17.361-32.339,17.361-50.208c0-8.698-1.441-17.283-4.283-25.518c-7.396-21.435-4.314-44.828,8.396-64.709
			c29.141-3.674,57.091-14.049,81.924-30.549l15.133-10.056c0.482-0.321,1.059-0.291,1.227-0.129
			c0.081,0.078,0.249,0.24,0.236,0.579c-0.004,0.112-0.036,0.394-0.257,0.577l-23.02,19.224c-0.497,0.415-0.983,0.852-1.487,1.334
			c-5.836,5.585-12.017,10.07-18.369,13.33c-5.305,2.722-10.27,6.254-14.756,10.5c-9.449,8.939-15.822,20.167-17.945,31.615
			c-2.306,12.426,0.734,24.162,8.339,32.201c7.604,8.037,19.16,11.728,31.69,10.108c11.549-1.486,23.111-7.229,32.561-16.168
			c12.303-11.64,19.142-26.752,18.687-40.981l20.844-17.406C514.353,163.849,518.771,129.668,501.405,105.244z M329.242,250.113
			c2.116,6.131,3.189,12.522,3.189,18.992c0,13.47-4.598,26.652-13.297,38.123c-26.591,35.065-40.646,75.283-40.646,116.303v21.476
			h-45.034V423.52c0-42.266-13.732-82.229-39.713-115.568c-8.461-10.859-13.259-23.303-13.872-35.986
			c-0.374-7.729,0.766-15.337,3.388-22.611c8.112-22.515,6.63-46.875-3.795-68.992c7.263,0.001,14.551-0.404,21.829-1.239
			l0.034,5.896c0.125,21.606,9.299,42.41,25.167,57.072L246,260.119v25.625c0,5.522,4.478,10.001,10.001,10.001
			c5.522,0,10.001-4.478,10.001-10.001v-25.627l19.506-18.023c15.87-14.664,25.044-35.466,25.169-57.071l0.034-5.899
			c7.292,0.836,14.655,1.259,21.95,1.259c0.106,0,0.211-0.003,0.317-0.003C322.778,202.536,321.321,227.156,329.242,250.113z
			 M478.529,167.708L455.5,186.94c-3.698,3.084-5.601,7.81-5.089,12.641c0.917,8.649-3.925,19.379-12.337,27.337
			c-6.305,5.965-14.094,9.924-21.368,10.86c-3.597,0.462-10.279,0.558-14.605-4.017c-7.358-7.778-3.318-24.054,8.824-35.542
			c3.109-2.942,6.521-5.376,10.141-7.232c8.072-4.143,15.834-9.753,23.067-16.676c0.157-0.15,0.317-0.297,0.481-0.434l23.016-19.221
			c4.509-3.765,7.216-9.313,7.426-15.219c0.209-5.885-2.104-11.605-6.347-15.693c-6.947-6.693-17.955-7.586-26.175-2.127
			l-15.133,10.056c-28.264,18.78-61.025,28.708-94.742,28.71c-7.896,0-15.886-0.554-23.746-1.646
			c-4.571-0.63-9.197,0.73-12.682,3.748c-3.466,3.001-5.469,7.353-5.495,11.938l-0.062,10.486
			c-0.093,16.089-6.923,31.578-18.74,42.498L256,242.126L240.065,227.4c-11.816-10.919-18.647-26.409-18.739-42.498l-0.061-10.48
			c-0.026-4.587-2.029-8.939-5.497-11.941c-2.924-2.531-6.648-3.899-10.476-3.899c-0.734,0-1.474,0.05-2.211,0.152
			c-41.469,5.762-83.547-3.851-118.483-27.065l-15.424-10.248c-9.396-6.247-21.879-3.938-28.421,5.263
			c-6.239,8.781-4.65,21.065,3.615,27.968l23.013,19.218c0.134,0.111,0.263,0.227,0.393,0.35c4.647,4.392,10.189,7.345,16.022,8.541
			c6.926,1.42,13.938,5.397,19.74,11.202c6.138,6.137,10.311,13.814,11.448,21.06c0.562,3.582,0.841,10.259-3.612,14.711
			c-4.452,4.451-11.129,4.174-14.711,3.612c-7.246-1.138-14.923-5.31-21.06-11.448c-6.27-6.269-10.463-14.096-11.504-21.475
			c-0.75-5.307-3.431-10.082-7.611-13.496l-23.017-19.222c-15.039-12.559-17.927-34.905-6.574-50.874
			c11.891-16.727,34.595-20.931,51.688-9.575l15.426,10.25c33.247,22.091,73.2,30.432,112.51,23.473l14.73-2.606
			c22.735-4.019,46.768-4.019,69.497-0.001l14.734,2.607c39.305,6.956,79.262-1.382,112.509-23.473l15.425-10.249
			c17.096-11.357,39.8-7.152,51.689,9.574c0,0,0,0,0,0.001C496.456,132.8,493.569,155.148,478.529,167.708z"/>
	</g>
</g>
<g>
	<g>
		<path d="M263.279,308.671c-1.859-1.859-4.439-2.92-7.069-2.92c-2.63,0-5.21,1.061-7.07,2.92c-1.86,1.87-2.93,4.44-2.93,7.08
			c0,2.63,1.069,5.21,2.93,7.061c1.86,1.869,4.44,2.939,7.07,2.939c2.63,0,5.21-1.069,7.069-2.939
			c1.86-1.851,2.931-4.431,2.931-7.061C266.21,313.111,265.14,310.541,263.279,308.671z"/>
	</g>
</g>
<g>
	<g>
		<path d="M277.188,340.508c-3.906-3.905-10.237-3.905-14.143,0c-3.753,3.753-9.862,3.755-13.617,0
			c-3.906-3.904-10.237-3.904-14.144,0c-3.905,3.905-3.905,10.238,0,14.144c5.776,5.775,13.364,8.664,20.951,8.664
			c7.588,0,15.176-2.889,20.952-8.664C281.093,350.747,281.093,344.414,277.188,340.508z"/>
	</g>
</g>
<g>
</g>
<g>
</g>
<g>
</g>
<g>
</g>
<g>
</g>
<g>
</g>
<g>
</g>
<g>
</g>
<g>
</g>
<g>
</g>
<g>
</g>
<g>
</g>
<g>
</g>
<g>
</g>
<g>
</g>
</svg>
