<?xml version="1.0" encoding="iso-8859-1"?>
<!-- Generator: Adobe Illustrator 19.0.0, SVG Export Plug-In . SVG Version: 6.00 Build 0)  -->
<svg version="1.1" id="Layer_1" xmlns="http://www.w3.org/2000/svg" xmlns:xlink="http://www.w3.org/1999/xlink" x="0px" y="0px"
	 viewBox="0 0 512 512" style="enable-background:new 0 0 512 512;" xml:space="preserve">
<g>
	<g>
		<path d="M344.478,110.189c-13.753-10.297-31.122-12.437-46.27-7.276c6.734-10.424,10.662-22.823,10.662-36.13
			C308.87,29.959,278.912,0,242.088,0c-36.824,0-66.782,29.959-66.782,66.782c0,36.824,29.959,66.782,66.782,66.782
			c9.886,0,19.267-2.176,27.717-6.047l-29.923,59.859l-61.033,61.035c-5.375,5.375-9.374,11.757-11.829,18.718h-7.948
			c-24.585,0-45.363,17.602-49.406,41.852c-0.009,0.055-0.018,0.109-0.026,0.162L80.899,492.72
			c-1.427,9.109,4.802,17.651,13.912,19.076c9.119,1.427,17.653-4.812,19.078-13.912l15.215-97.191h136.925l15.216,97.191
			c1.426,9.11,9.967,15.338,19.078,13.912s15.339-9.967,13.912-19.077c-0.012-0.079-28.753-183.659-28.766-183.738
			c-1.115-6.687-3.516-12.946-7.027-18.508l37.979-37.979c2.793-2.775,5.242-5.876,7.322-9.267
			c4.835,13.011,7.389,26.83,7.389,40.597V461.91c0,27.618,22.469,50.087,50.087,50.087s50.087-22.469,50.087-50.087V283.825
			C431.304,215.884,398.852,150.977,344.478,110.189z M242.088,100.173c-18.412,0-33.391-14.979-33.391-33.391
			c0-18.412,14.979-33.391,33.391-33.391s33.391,14.979,33.391,33.391C275.479,85.194,260.5,100.173,242.088,100.173z
			 M134.331,367.413l8.282-53.01c1.375-8.048,8.284-13.883,16.457-13.883h7.948c2.455,6.961,6.455,13.343,11.829,18.718
			c19.577,19.578,51.249,19.581,70.828,0l3.113-3.113l8.013,51.288H134.331z M397.913,461.911c0,9.206-7.49,16.696-16.696,16.696
			c-9.206,0-16.696-7.49-16.696-16.696V283.825c0-30.98-9.488-60.874-27.438-86.45c-7.259-10.345-22.945-9.181-28.598,2.125
			l-12.491,24.981c-0.824,1.638-1.87,3.094-3.149,4.365l-66.782,66.782c-6.529,6.528-17.076,6.529-23.606,0
			c-6.527-6.528-6.528-17.077,0.001-23.606l62.951-62.951c1.27-1.269,2.325-2.735,3.129-4.341l30.895-61.805
			c0.019-0.038,0.038-0.075,0.057-0.112c0.003-0.007,0.007-0.014,0.01-0.021l0.004-0.009c4.746-9.41,16.731-12.027,24.951-5.873
			c45.996,34.505,73.457,89.427,73.457,146.915V461.911z"/>
	</g>
</g>
<g>
</g>
<g>
</g>
<g>
</g>
<g>
</g>
<g>
</g>
<g>
</g>
<g>
</g>
<g>
</g>
<g>
</g>
<g>
</g>
<g>
</g>
<g>
</g>
<g>
</g>
<g>
</g>
<g>
</g>
</svg>
